<?xml version="1.0" encoding="UTF-8" standalone="no"?>
<!-- Created with Inkscape (http://www.inkscape.org/) -->

<svg
   version="1.1"
   id="svg198"
   width="1773.312"
   height="1657.7668"
   viewBox="0 0 1773.312 1657.7668"
   sodipodi:docname="Boat32b.svg"
   inkscape:version="1.2.2 (732a01da63, 2022-12-09, custom)"
   xmlns:inkscape="http://www.inkscape.org/namespaces/inkscape"
   xmlns:sodipodi="http://sodipodi.sourceforge.net/DTD/sodipodi-0.dtd"
   xmlns="http://www.w3.org/2000/svg"
   xmlns:svg="http://www.w3.org/2000/svg">
  <defs
     id="defs202" />
  <sodipodi:namedview
     id="namedview200"
     pagecolor="#ffffff"
     bordercolor="#000000"
     borderopacity="0.25"
     inkscape:showpageshadow="2"
     inkscape:pageopacity="0.0"
     inkscape:pagecheckerboard="0"
     inkscape:deskcolor="#d1d1d1"
     showgrid="false"
     inkscape:zoom="0.38988115"
     inkscape:cx="818.19806"
     inkscape:cy="1034.9308"
     inkscape:window-width="1846"
     inkscape:window-height="1016"
     inkscape:window-x="0"
     inkscape:window-y="0"
     inkscape:window-maximized="1"
     inkscape:current-layer="layer1" />
  <g
     inkscape:groupmode="layer"
     id="layer1"
     inkscape:label="Layer 1">
    <path
       id="path316"
       style="fill:#000000;stroke-width:3.12206"
       d="M 870.20312 0 C 853.5137 0.08039968 850.87829 3.6552692 851.92578 24.791016 C 852.44011 35.169502 852.02057 43.662109 850.99414 43.662109 C 849.96774 43.662109 777.57725 55.603645 690.12695 70.199219 C 602.67667 84.794789 529.11217 96.736328 526.65039 96.736328 C 524.18857 96.736328 510.2463 81.584624 495.66797 63.066406 C 461.17323 19.249302 461.03885 19.142993 450.36523 27.082031 C 435.60896 38.057747 437.52083 43.364778 472.55273 88.677734 L 505.14258 130.83203 L 488.45117 204.50195 C 399.25498 598.18184 317.05594 864.68328 210.2793 1106.3848 C 181.78102 1170.8938 126.00541 1283.03 96.361328 1335.4141 L 74.71875 1373.6582 L 45.097656 1373.6582 C 17.812768 1373.6582 14.875678 1374.263 7.8164062 1381.3223 C -2.9967502 1392.1355 -2.5351325 1406.4212 8.8574219 1413.5117 C 13.645102 1416.4915 29.579185 1427.7111 44.265625 1438.4453 C 70.437421 1457.5738 71.047435 1458.3189 74.949219 1475.9102 C 86.120175 1526.2746 112.83821 1581.9975 141.80859 1615.3535 L 155.13672 1630.6992 L 704.39844 1644.1035 C 1006.4911 1651.4758 1269.2948 1657.5658 1288.4043 1657.6367 L 1323.1484 1657.7676 L 1340.7988 1610.584 C 1372.7553 1525.165 1381.4527 1480.1611 1379.6289 1409.6328 C 1378.9841 1384.6962 1379.4194 1364.293 1380.5957 1364.293 C 1383.2528 1364.293 1561.5366 1332.1098 1676.6992 1310.8418 C 1730.5679 1300.8934 1764.5915 1293.178 1768.0195 1290.1309 C 1774.5272 1284.3464 1775.141 1270.9699 1769.2676 1262.9375 C 1765.7265 1258.0948 1762.3556 1257.4781 1748.1934 1259.0781 L 1731.334 1260.9824 L 1677.918 1188.5352 C 1648.5389 1148.6895 1524.7828 981.21518 1402.9062 816.37109 C 1281.0301 651.52706 1117.3458 429.71839 1039.166 323.46484 L 897.02148 130.27539 L 894.94727 98.675781 C 893.80662 81.296233 891.99779 53.965502 890.92773 37.941406 C 888.7631 5.5250468 885.7036 -0.0746697 870.20312 0 z M 851.10156 56.859375 C 851.89095 57.648791 856.67789 157.21039 861.73828 278.10742 C 866.79874 399.00445 871.48489 508.01851 872.15234 520.35938 L 873.36523 542.79688 L 861.80078 528.16406 C 855.44034 520.11604 778.95406 422.96009 691.83008 312.26172 C 557.35774 141.40333 534.29327 110.63647 539.1875 108.65234 C 547.52245 105.27336 849.39066 55.148513 851.10156 56.859375 z M 900.2793 157.16406 C 902.33813 155.10518 978.69157 269.72381 1010.8086 323.08594 C 1119.5077 503.68873 1215.7112 711.16849 1306.8477 961.54688 C 1357.4038 1100.44 1429.1609 1315.8485 1425.668 1318.2383 C 1418.0116 1323.4768 1411.6523 1316.783 1377.4707 1267.4961 C 1297.5804 1152.2999 1146.2737 940.4991 989.25781 724.07227 L 931.35547 644.26172 L 915.13477 401.39648 C 906.2125 267.82093 899.52699 157.91638 900.2793 157.16406 z M 934.39258 675.6543 C 936.47623 673.57062 973.73443 744.96378 990.7207 783.58984 C 1030.7062 874.51492 1053.323 962.75528 1061.541 1059.8926 C 1068.84 1146.1669 1063.1889 1237.7565 1042.4453 1369.3633 L 1035.9863 1410.3379 L 1013.6973 1413.4004 C 1001.4379 1415.0844 989.71314 1416.6651 987.64453 1416.9141 C 985.57595 1417.1633 983.16862 1412.8013 982.29297 1407.2207 C 979.96235 1392.3675 933.1179 676.92895 934.39258 675.6543 z M 908.11719 1386.1465 L 909.29883 1405.6602 C 909.94901 1416.3922 910.14153 1425.6915 909.72461 1426.3262 C 908.54182 1428.1268 799.71123 1441.156 713.54297 1449.8125 C 577.72999 1463.4564 439.7184 1472.204 346.17578 1473.0977 L 297.25781 1473.5645 L 280.61328 1459.1816 L 263.9668 1444.7969 L 171.36914 1446.9336 L 78.771484 1449.0703 L 56.476562 1432.8555 C 44.214675 1423.9369 34.956292 1415.8661 35.900391 1414.9219 C 37.235689 1413.5867 839.331 1386.8484 895.125 1386.2793 L 908.11719 1386.1465 z " />
    <g
       id="layer3"
       inkscape:label="Body"
       style="fill:#803300">
      <path
         style="fill:#803300;stroke-width:3.12206"
         d="M 759.9803,439.38272 C 698.46042,359.96534 604.07779,238.33767 550.24117,169.099 483.21348,82.89552 452.95871,41.64077 454.26717,38.23098 c 1.14115,-2.97373 3.01763,-3.82605 4.65855,-2.11592 1.51124,1.57498 95.59525,120.85966 209.07561,265.07704 177.28404,225.30289 206.32788,263.64734 206.32788,272.39965 0,5.60241 -0.56127,10.18619 -1.24729,10.18619 -0.68599,0 -51.58172,-64.97785 -113.10162,-144.39522 z"
         id="path392" />
      <path
         style="fill:#803300;stroke-width:3.12206"
         d="m 1137.3525,1388.5191 c 0.7099,-2.1297 7.5004,-4.9615 15.09,-6.293 7.5896,-1.3314 147.2672,-27.4111 310.3949,-57.955 276.8065,-51.8289 296.6645,-55.1406 297.6284,-49.636 0.568,3.244 0.3334,6.5974 -0.5212,7.4521 -3.4348,3.4347 -596.1014,109.4712 -615.0369,110.0389 -5.734,0.1718 -8.3918,-1.097 -7.5552,-3.607 z"
         id="path384" />
      <path
         style="fill:#803300;stroke-width:3.12206"
         d="m 12.688778,1397.8549 c 0.026,-2.1465 1.0799,-5.4774 2.3415,-7.402 2.2026,-3.3604 77.0937,-6.0172 724.271452,-25.6938 l 169.37322,-5.1495 -10e-4,7.0246 c -10e-4,5.9969 -1.71442,7.0566 -11.70927,7.2427 -6.43925,0.12 -196.45557,6.2642 -422.2585,13.6538 -486.242402,15.9127 -462.078802,15.3727 -462.016902,10.3241 z"
         id="path382" />
      <path
         style="fill:#803300;stroke-width:3.12206"
         d="M 893.14585,725.83163 C 877.82677,360.08241 864.64912,49.94489 863.86221,36.63712 c -1.41157,-23.87054 -1.32979,-24.19596 6.07915,-24.19596 4.13046,0 7.50991,1.84181 7.50991,4.09291 0,7.4543 90.18984,1361.39853 92.08433,1382.38453 l 1.85751,20.5766 -24.33596,2.8388 -24.33601,2.8389 -0.86119,-17.1713 c -0.47367,-9.4443 -13.39499,-316.4208 -28.7141,-682.16997 z"
         id="path376" />
      <path
         style="fill:#803300;stroke-width:3.12206"
         d="m 86.195878,1471.6353 c -1.1284,-4.4955 -1.452,-8.7731 -0.7193,-9.5058 0.7327,-0.7325 39.901202,-2.1895 87.041102,-3.2377 l 85.709,-1.9056 9.85623,7.287 c 5.421,4.0078 9.05825,8.0893 8.08295,9.0699 -1.68679,1.6958 -72.98238,4.4352 -151.57278,5.8236 l -36.345802,0.6421 z"
         id="path372" />
      <path
         style="fill:#803300;stroke-width:3.12206"
         d="m 96.385878,1508.3061 -4.8643,-15.2114 59.685002,-2.0288 c 32.8268,-1.1159 110.96495,-3.4117 173.64019,-5.102 257.74664,-6.9507 469.47875,-26.9185 763.34343,-71.9885 62.7908,-9.6302 227.2618,-37.1451 233.374,-39.0418 4.8714,-1.5117 5.4636,0.865 5.4636,21.9303 0,12.9942 -0.8969,23.6259 -1.9931,23.6259 -1.0962,0 -47.81,6.3721 -103.8085,14.1604 -430.42371,59.8633 -744.99131,86.8351 -1030.81252,88.3842 l -89.1633,0.4833 z"
         id="path370" />
      <path
         style="fill:#803300;stroke-width:3.12206"
         d="m 115.03688,1553.6764 -8.1768,-16.6722 117.579,-2.0205 c 294.93527,-5.0683 607.6245,-32.8798 1007.36592,-89.5982 48.0797,-6.8218 88.4713,-12.4043 89.7592,-12.4055 3.176,0 2.8934,25.5145 -0.339,30.611 -4.0081,6.3195 -388.61636,53.4341 -602.99892,73.8676 -203.75675,19.4207 -400.28125,31.313 -535.5633,32.4085 l -59.4492,0.4815 z"
         id="path368" />
      <path
         style="fill:#803300;stroke-width:3.12206"
         d="m 665.15126,1631.1711 c -265.29696,-6.1813 -487.97778,-11.9361 -494.84628,-12.7884 -10.1992,-1.2655 -14.4913,-4.0958 -23.4155,-15.44 -6.01,-7.6399 -11.3216,-15.0672 -11.8036,-16.5051 -0.4819,-1.438 36.7486,-3.5908 82.7347,-4.7839 263.99901,-6.8492 563.68499,-33.416 988.87672,-87.6625 60.0275,-7.6584 109.7222,-13.3431 110.4326,-12.6326 2.2627,2.2627 -6.3077,42.1591 -9.0564,42.1591 -1.4504,0 -42.4233,5.5436 -91.051,12.319 -48.6276,6.7754 -104.234,14.0349 -123.5695,16.132 -19.3356,2.097 -37.5618,5.5852 -40.5026,7.7513 -15.4448,11.3765 18.213,8.8752 173.9649,-12.9281 41.9562,-5.8733 76.8712,-10.0914 77.5891,-9.3735 2.9955,2.9954 -9.5084,32.7576 -14.3632,34.1875 -2.8937,0.8524 -34.0409,5.8845 -69.2161,11.1822 -35.1752,5.2978 -65.3108,10.9883 -66.9682,12.6457 -1.9363,1.9364 -1.8368,4.1898 0.2784,6.3052 2.3078,2.3077 23.0275,0.1613 69.3097,-7.1794 36.3099,-5.7593 66.0179,-10.0759 66.0179,-9.5927 0,0.4833 -5.6032,13.0069 -12.4516,27.8302 -6.8484,14.8233 -11.5416,28.424 -10.4293,30.2237 1.3991,2.2637 -16.6532,2.6738 -58.5752,1.3306 -33.3287,-1.0678 -277.65872,-6.9989 -542.95569,-13.1803 z"
         id="path366" />
      <path
         style="fill:#803300;stroke-width:3.12206"
         d="m 1283.6427,1625.9043 c 33.5172,-66.3972 55.8733,-158.6456 55.8733,-230.551 0,-24.1657 0.1979,-24.8165 7.5498,-24.8165 4.1524,0 9.5988,-0.7863 12.103,-1.7472 6.8503,-2.6287 8.7972,9.8719 8.7297,56.0506 -0.098,66.7332 -11.0976,113.5059 -49.8236,211.8521 -3.2078,8.1463 -4.4258,8.5857 -23.7964,8.5857 h -20.4156 z"
         id="path364" />
    </g>
    <g
       id="layer2"
       inkscape:label="Sail"
       style="fill:#ffeeaa">
      <path
         style="display:inline;fill:#ffeeaa;stroke-width:3.12206"
         d="M 1405.5176,1208.9369 C 1276.163,824.73816 1181.0938,596.77512 1064.7285,391.77131 c -15.595,-27.47412 -26.3825,-47.84556 -23.9724,-45.26985 2.4102,2.5757 49.8415,66.49985 105.403,142.05369 55.5614,75.55382 206.8604,280.49013 336.2199,455.414 129.3595,174.92385 234.6314,318.61105 233.9376,319.30485 -1.7405,1.7405 -257.849,50.2367 -267.5285,50.6587 -7.5196,0.3278 -9.1026,-3.5134 -43.2705,-104.9958 z"
         id="path390" />
      <path
         style="display:inline;fill:#ffeeaa;stroke-width:3.12206"
         d="m 90.692478,1371.6241 c 0,-1.1191 6.2074,-12.7967 13.794402,-25.9503 7.587,-13.1535 27.8786,-51.2246 45.0926,-84.6024 99.7517,-193.4184 182.90535,-413.15405 258.07725,-681.97655 20.44994,-73.13111 72.52354,-282.30358 92.29279,-370.72741 7.58004,-33.90398 14.60827,-61.65127 15.61837,-61.66066 1.50745,-0.0141 319.85542,408.91286 350.91659,450.7622 l 9.32657,12.56589 14.69109,343.56678 c 8.08008,188.96175 14.7713,354.93275 14.86936,368.82435 l 0.17825,25.2577 -74.14892,2.0292 c -252.04018,6.8976 -733.804652,22.1169 -738.367052,23.3256 -1.2878,0.3412 -2.3415,-0.2953 -2.3415,-1.4144 z"
         id="path386" />
      <path
         style="fill:#ffeeaa;stroke-width:3.12206"
         d="m 1049.1645,1405.4527 c 0,-1.4019 3.4888,-24.8311 7.7529,-52.065 14.497,-92.5899 18.2718,-136.777 18.4049,-215.4443 0.1657,-97.9643 -8.6604,-164.67743 -32.837,-248.20368 -9.8813,-34.13816 -38.345,-108.82118 -51.76069,-135.80955 -4.26787,-8.58566 -5.68722,-13.5029 -3.15409,-10.9272 14.21718,14.45622 415.14608,577.30533 413.03818,579.84903 -0.3223,0.3888 -60.6397,11.9443 -134.0389,25.6787 -73.3991,13.7345 -134.6725,25.7256 -136.1632,26.6468 -1.4906,0.9213 -3.6078,5.7614 -4.7047,10.7559 -1.872,8.5229 -3.3734,9.3099 -24.4362,12.8073 -12.3429,2.0495 -28.0613,4.8178 -34.9299,6.1516 -17.4939,3.3972 -17.1713,3.3866 -17.1713,0.5604 z"
         id="path380" />
    </g>
  </g>
</svg>
